<?xml version="1.0" encoding="UTF-8" standalone="no"?>
<!-- Created with Inkscape (http://www.inkscape.org/) -->

<svg
   xmlns:dc="http://purl.org/dc/elements/1.1/"
   xmlns:cc="http://creativecommons.org/ns#"
   xmlns:rdf="http://www.w3.org/1999/02/22-rdf-syntax-ns#"
   xmlns:svg="http://www.w3.org/2000/svg"
   xmlns="http://www.w3.org/2000/svg"
   xmlns:sodipodi="http://sodipodi.sourceforge.net/DTD/sodipodi-0.dtd"
   xmlns:inkscape="http://www.inkscape.org/namespaces/inkscape"
   width="210mm"
   height="297mm"
   viewBox="0 0 210 297"
   version="1.1"
   id="svg3322"
   inkscape:version="0.92.2 5c3e80d, 2017-08-06"
   sodipodi:docname="lobster.svg">
  <defs
     id="defs3316" />
  <sodipodi:namedview
     id="base"
     pagecolor="#ffffff"
     bordercolor="#666666"
     borderopacity="1.0"
     inkscape:pageopacity="0.0"
     inkscape:pageshadow="2"
     inkscape:zoom="0.67081229"
     inkscape:cx="396.85039"
     inkscape:cy="740.14744"
     inkscape:document-units="mm"
     inkscape:current-layer="layer1"
     showgrid="false"
     inkscape:window-width="1920"
     inkscape:window-height="966"
     inkscape:window-x="0"
     inkscape:window-y="1"
     inkscape:window-maximized="1" />
  <metadata
     id="metadata3319">
    <rdf:RDF>
      <cc:Work
         rdf:about="">
        <dc:format>image/svg+xml</dc:format>
        <dc:type
           rdf:resource="http://purl.org/dc/dcmitype/StillImage" />
        <dc:title></dc:title>
      </cc:Work>
    </rdf:RDF>
  </metadata>
  <g
     inkscape:label="Layer 1"
     inkscape:groupmode="layer"
     id="layer1">
    <path
       id="path4038"
       style="fill:#cb3458;fill-opacity:1;stroke:#cb3458;stroke-width:0.26458332px;stroke-linecap:butt;stroke-linejoin:miter;stroke-opacity:1"
       d="m 325.74169,86.37711 c 0,0 0.42153,1.22626 2.68245,0.95801 0,0 4.48353,3.33391 5.13498,4.56017 0.65145,1.22627 -0.57481,0.22993 -0.57481,0.22993 0,0 5.55656,10.07835 5.47986,10.88309 -0.0766,0.80473 -0.1916,3.37222 -2.26092,5.05834 -2.06932,1.68611 -2.45253,1.22626 -2.45253,0.99633 0,-0.22992 3.10398,-3.98535 2.83574,-5.21162 -0.26825,-1.22626 -1.72443,-4.71345 -2.72077,-5.32658 -0.99634,-0.61313 -3.48723,-5.02002 -3.56383,-6.01635 -0.0766,-0.99634 -2.45257,-3.02734 -2.52917,-3.18063 -0.0766,-0.15328 -2.64413,0.57482 -3.1423,1.49451 -0.49817,0.9197 -9.31194,5.78643 -10.19332,6.01636 -0.88138,0.22992 -1.80107,-0.61313 -1.80107,-0.61313 0,0 -0.65146,0.42153 -0.42153,0.95802 0.22992,0.53649 1.41787,1.34122 1.07298,2.56748 -0.34489,1.22627 -0.53649,1.37955 -0.53649,1.37955 0,0 -0.57481,-1.34122 -0.45985,-0.53649 0.11496,0.80474 0.99634,4.82841 0.57481,5.1733 -0.42153,0.34489 -0.88138,-0.26824 -0.88138,-0.26824 0,0 -1.14962,-0.0383 -0.11496,1.22626 1.03466,1.26458 1.14962,5.13498 1.14962,5.13498 0,0 -1.22626,-1.1113 -1.41786,-0.30657 -0.19161,0.80474 1.03466,3.21894 1.03466,3.21894 0,0 0.80473,3.48719 0.45985,3.21895 -0.34489,-0.26825 -1.22627,-1.76276 -1.60948,-1.41787 -0.3832,0.34489 -0.84305,1.34122 -0.65145,1.49451 0.19161,0.15328 1.95436,1.60947 1.72444,3.87039 0,0 -0.88138,-1.22626 -1.37955,-0.57481 -0.49817,0.65145 0.95802,2.75909 1.07298,4.40689 0.11496,1.64779 -0.84306,-0.22993 -1.53283,0.34488 -0.68977,0.57481 0.11496,0.80474 0.68977,1.26459 0.57481,0.45985 7.28094,2.45252 8.77545,4.29192 1.49451,1.8394 4.86674,5.13498 4.40689,6.97437 -0.45985,1.8394 -4.02368,3.52551 -4.67513,3.71712 0,0 -2.41421,-0.11497 -2.64413,0.22992 -0.22993,0.34489 -4.02368,1.99266 -4.90506,1.95436 -0.88138,-0.0383 -4.67513,-0.11496 -5.05834,-0.42153 -0.38321,-0.30657 -1.76275,0.34489 -3.55651,0.61313 -1.79376,-0.26824 -3.1733,-0.9197 -3.55651,-0.61313 -0.38321,0.30657 -4.17696,0.38323 -5.05834,0.42153 -0.88138,0.0383 -4.67513,-1.60947 -4.90506,-1.95436 -0.22992,-0.34489 -2.64413,-0.22992 -2.64413,-0.22992 -0.65145,-0.19161 -4.21529,-1.87772 -4.67514,-3.71712 -0.45985,-1.83939 2.91239,-5.13497 4.4069,-6.97437 1.49451,-1.8394 8.20064,-3.83207 8.77545,-4.29192 0.57481,-0.45985 1.37954,-0.68978 0.68977,-1.26459 -0.68977,-0.57481 -1.64779,1.30291 -1.53283,-0.34488 0.11496,-1.6478 1.57115,-3.75544 1.07298,-4.40689 -0.49817,-0.65145 -1.37954,0.57481 -1.37954,0.57481 -0.22993,-2.26092 1.53282,-3.71711 1.72443,-3.87039 0.1916,-0.15329 -0.26825,-1.14962 -0.65145,-1.49451 -0.38321,-0.34489 -1.26459,1.14962 -1.60948,1.41787 -0.34488,0.26824 0.45985,-3.21895 0.45985,-3.21895 0,0 1.22627,-2.4142 1.03466,-3.21894 -0.1916,-0.80473 -1.41786,0.30657 -1.41786,0.30657 0,0 0.11496,-3.8704 1.14962,-5.13498 1.03466,-1.26456 -0.11496,-1.22626 -0.11496,-1.22626 0,0 -0.45985,0.61313 -0.88138,0.26824 -0.42153,-0.34489 0.45985,-4.36856 0.57481,-5.1733 0.11496,-0.80473 -0.45985,0.53649 -0.45985,0.53649 0,0 -0.1916,-0.15328 -0.53649,-1.37955 -0.34489,-1.22626 0.84306,-2.03099 1.07298,-2.56748 0.22993,-0.53649 -0.42153,-0.95802 -0.42153,-0.95802 0,0 -0.91969,0.84305 -1.80107,0.61313 -0.88138,-0.22993 -9.69516,-5.09666 -10.19333,-6.01636 -0.49817,-0.91969 -3.0657,-1.64779 -3.1423,-1.49451 -0.0766,0.15329 -2.45257,2.18429 -2.52917,3.18063 -0.0766,0.99633 -2.56749,5.40322 -3.56383,6.01635 -0.99634,0.61313 -2.45253,4.10032 -2.72077,5.32658 -0.26825,1.22627 2.83574,4.9817 2.83574,5.21162 0,0.22993 -0.38321,0.68978 -2.45253,-0.99633 -2.06932,-1.68612 -2.18429,-4.25361 -2.26093,-5.05834 -0.0766,-0.80474 5.47987,-10.88309 5.47987,-10.88309 0,0 -1.22626,0.99634 -0.57481,-0.22993 0.65145,-1.22626 5.13498,-4.56017 5.13498,-4.56017 2.26092,0.26825 2.68245,-0.95801 2.68245,-0.95801 0.19161,1.72443 9.81012,7.05101 9.81012,7.05101 3.06566,1.91604 2.52917,-1.07298 2.52917,-1.07298 0.26824,-0.88138 -1.80108,-0.68977 -1.80108,-0.68977 -0.65146,0.30656 -14.17869,-9.2353 -14.17869,-9.2353 -0.22992,-0.1916 -3.48719,3.10398 -3.48719,3.10398 -3.60215,2.52917 -8.16232,9.15866 -8.16232,9.15866 -1.49451,2.06932 0.53649,7.47254 0.53649,7.47254 -7.77911,-4.94337 4.94338,-17.32097 4.94338,-17.32097 1.03466,-1.1113 0,-0.95802 0,-0.95802 0.65145,-0.11496 4.17696,-2.87406 4.17696,-2.87406 1.30291,-0.91969 2.41421,-0.65145 2.41421,-0.65145 1.45619,0.11496 1.80107,-0.88138 1.80107,-0.88138 0.49817,1.91604 12.37761,10.3466 12.37761,10.3466 0.65146,0.53649 1.26459,0.22993 1.26459,0.22993 0.22992,-0.26825 -0.19161,-2.41421 -0.19161,-2.41421 -0.11496,0.22993 -14.37028,-13.373945 -14.37028,-13.373945 -1.11131,-0.11496 -1.36004,-1.5522 -1.36004,-1.5522 -1.13807,-0.70452 -2.98065,-3.25163 -2.98065,-3.25163 -0.70452,-3.63098 -0.96706,-2.28012 -0.96706,-2.28012 l 1.29222,-2.92247 c 1.62581,1.89678 1.13807,3.19743 1.13807,3.19743 0.48774,0.16258 2.98065,3.90194 2.98065,3.90194 l 0.81291,0.37936 c 2.11355,3.143235 13.71102,13.385845 13.71102,13.385845 l 0.0542,-2.38452 c -2.98066,-1.30065 -9.42971,-15.011665 -9.42971,-15.011665 -1.51743,-1.73419 -1.30066,-3.19742 -1.30066,-3.19742 -1.84258,-3.08905 -1.89678,-6.34067 -1.89678,-6.34067 -0.70451,-0.812901 -0.27096,-3.360011 -0.27096,-3.360011 0.97548,-0.921301 1.62581,-0.867101 1.62581,-0.867101 -0.16258,0.37936 0.59613,4.010341 0.59613,4.010341 0.70452,0.921291 1.68001,5.148401 1.68001,5.148401 0.59613,0.70452 1.30065,2.11355 1.30065,2.11355 0.70452,5.09421 7.85809,15.174245 7.85809,15.174245 v -3.79356 c -1.46323,-0.97548 -5.69034,-13.223265 -5.69034,-13.223265 l 0.43355,-0.8671 c -1.08387,-1.19226 -0.92129,-8.237452 -0.92129,-8.237452 1.30065,0.596141 2.11355,1.950981 2.11355,1.950981 -0.37935,1.950961 0.48774,2.005161 0.48774,2.005161 0.65033,4.66066 0.27097,4.01034 0.27097,4.01034 l 0.75871,0.43355 c 0.27097,6.99099 2.6013,10.56777 2.6013,10.56777 -0.43355,-0.70452 -0.43355,-1.84258 -0.59613,-2.05936 -0.16258,-0.21677 0.8671,0.43355 0.8671,0.43355 0,0 -1.84258,-3.57678 -0.8671,-2.33033 0.97549,1.24646 1.30065,0.43355 1.30065,0.43355 l -0.70452,-3.79356 c 1.08388,3.08904 2.70525,2.60016 2.70525,2.60016 l -1.01827,-2.8851 c -12.55867,-28.681257 -21.89281,1.52741 -21.89281,1.52741 -23.25049,41.749055 -15.61347,64.829835 -15.61347,64.829835 -9.16442,-21.55338 14.51034,-68.478635 14.51034,-68.478635 -8.40072,-17.225732 -2.12139,-17.395442 -2.12139,-17.395442 -1.35769,3.98822 0.16971,6.87332 0.16971,6.87332 1.86683,5.600482 2.96996,8.061302 2.96996,8.061302 4.24279,-10.776692 7.38245,-10.097842 6.87331,-11.879812 -0.50913,-1.78197 0.93342,-8.655292 1.69712,-9.334138 0.7637,-0.678847 4.83679,-3.309376 2.03655,0 -2.80025,3.309378 -2.03655,8.570438 -2.03655,8.570438 l 0.93341,-0.25457 c 0,0 -1.10312,-3.6488 -0.67884,-2.71539 0.42428,0.93342 2.96996,2.80025 2.96996,2.80025 l 2.03654,-0.25457 c 0.67885,2.20625 1.44255,1.5274 1.44255,1.5274 0.93341,-7.721875 4.83678,-6.61879 4.83678,-6.61879 -5.1762,6.5339 -1.01827,9.92813 -1.01827,9.92813 l 1.10312,-0.67885 0.76371,-1.35765 v 0 l 0.59399,3.39423 1.95168,0.16971 1.69712,4.242792 1.69712,0.84856 c -0.33943,-5.600482 -2.80025,-12.982942 -2.80025,-12.982942 -4.92163,-24.862745 -19.00771,-20.874522 -19.00771,-20.874522 -8.14616,0.678845 -15.86803,17.904572 -15.86803,17.904572 0,0 7.23049,-19.612605 18.01086,-19.150589 0,0 8.3933,-1.232041 14.47651,10.93438 0,0 3.77314,10.395359 4.15815,10.934379 0.38501,0.53902 1.77106,9.240321 2.9261,11.165391 0,0 0.38501,-0.84704 0.98743,-0.92404 0.60241,0.077 0.98742,0.92404 0.98742,0.92404 1.15504,-1.92507 2.54109,-10.626371 2.9261,-11.165391 0.38501,-0.53902 4.15815,-10.934376 4.15815,-10.934376 6.08321,-12.166421 14.4765,-10.93438 14.4765,-10.93438 10.78037,-0.462016 17.94746,19.150589 17.94746,19.150589 0,0 -7.78526,-17.225727 -15.93142,-17.904572 0,0 -14.08607,-3.988223 -19.0077,20.874519 0,0 -2.46082,7.38246 -2.80025,12.982942 l 1.69712,-0.84856 1.69712,-4.242792 1.95168,-0.16971 0.59399,-3.39423 v 0 l 0.76371,1.35765 1.10312,0.67885 c 0,0 4.15793,-3.39423 -1.01827,-9.928127 0,0 3.90337,-1.103085 4.83678,6.618787 0,0 0.7637,0.67885 1.44255,-1.5274 l 2.03654,0.25457 c 0,0 2.54567,-1.86683 2.96995,-2.80025 0.42428,-0.93341 -0.67884,2.71539 -0.67884,2.71539 l 0.93341,0.25457 c 0,0 0.7637,-5.261057 -2.03654,-8.570435 -2.80024,-3.309376 1.27284,-0.678847 2.03654,0 0.7637,0.678846 2.20625,7.552165 1.69712,9.334135 -0.50914,1.78197 2.63052,1.10312 6.87331,11.879812 0,0 1.10313,-2.46082 2.96996,-8.061302 0,0 1.5274,-2.8851 0.16971,-6.87332 0,0 6.27933,0.16971 -2.1214,17.395442 0,0 23.67477,46.925255 14.51035,68.478635 0,0 7.63702,-23.08078 -15.61347,-64.829835 0,0 -9.33414,-30.208664 -21.8928,-1.52741 l -1.01827,2.8851 c 0,0 1.62137,0.48888 2.70525,-2.60016 l -0.70452,3.79356 c 0,0 0.32516,0.81291 1.30065,-0.43355 0.97548,-1.24645 -0.8671,2.33033 -0.8671,2.33033 0,0 1.02968,-0.65032 0.8671,-0.43355 -0.16258,0.21678 -0.16258,1.35484 -0.59613,2.05936 0,0 2.33033,-3.57678 2.6013,-10.56777 l 0.75871,-0.43355 c 0,0 -0.37936,0.65032 0.27097,-4.01034 0,0 0.8671,-0.0542 0.48774,-2.005161 0,0 0.8129,-1.35484 2.11355,-1.950981 0,0 0.16258,7.045192 -0.92129,8.237452 l 0.43355,0.8671 c 0,0 -4.22711,12.247785 -5.69034,13.223265 v 3.79356 c 0,0 7.15357,-10.080035 7.85809,-15.174245 0,0 0.70452,-1.40903 1.30065,-2.11355 0,0 0.97548,-4.22711 1.68,-5.148401 0,0 0.75871,-3.630981 0.59613,-4.010341 0,0 0.65033,-0.0542 1.62581,0.867101 0,0 0.43355,2.54711 -0.27096,3.360011 0,0 -0.0542,3.25162 -1.89678,6.34067 0,0 0.21677,1.46323 -1.30065,3.19742 0,0 -6.44905,13.711015 -9.42971,15.011665 l 0.0542,2.38452 c 0,0 11.59746,-10.24261 13.71101,-13.385845 l 0.81291,-0.37936 c 0,0 2.49291,-3.73936 2.98065,-3.90194 0,0 -0.48774,-1.30065 1.13807,-3.19743 l 1.29222,2.92247 c 0,0 -0.26254,-1.35086 -0.96706,2.28012 0,0 -1.84258,2.54711 -2.98065,3.25163 0,0 -0.24873,1.43724 -1.36004,1.5522 0,0 -14.25531,13.603875 -14.37027,13.373945 0,0 -0.42153,2.14596 -0.19161,2.41421 0,0 0.61314,0.30656 1.26459,-0.22993 0,0 11.87943,-8.43056 12.3776,-10.3466 0,0 0.34488,0.99634 1.80107,0.88138 0,0 1.1113,-0.26824 2.41421,0.65145 0,0 3.52551,2.7591 4.17696,2.87406 0,0 -1.03466,-0.15328 0,0.95802 0,0 12.72248,12.3776 4.94337,17.32097 0,0 2.031,-5.40322 0.5365,-7.47254 0,0 -4.56017,-6.62949 -8.16232,-9.15866 0,0 -3.25727,-3.29558 -3.48719,-3.10398 0,0 -13.52722,9.54186 -14.17868,9.2353 0,0 -2.06932,-0.19161 -1.80108,0.68977 0,0 -0.53649,2.98902 2.52917,1.07298 0,0 9.61851,-5.32658 9.81011,-7.05101"
       inkscape:connector-curvature="0"
       sodipodi:nodetypes="ccccccscscccccccccscccccccccsssssccccscsscccssssscccccccccscccccccccccscccccccccccccccccccccccccccccccccccccccccccccccccccccccccccccccssccccccccccccccccccccscccsccccccccccccccccccccsscccccccccccccccccccccccccccccccccccccccccccccccccccccccccc" />
  </g>
</svg>
